<svg xmlns="http://www.w3.org/2000/svg" viewBox="0 0 25 18"><path class="disruptiva-water" d="M14.82299999999999 8.11S19.797 7.633 18.71199999999999 13.11C18.71199999999999 13.11 20.32599999999999 11.417 19.85 9.64400000000001C19.241 7.26300000000001 16.27799999999999 7.554 14.82299999999999 8.11z"/><path class="disruptiva-water" d="M11.86 13.533S17.786 15.359 19.87600000000001 13.243C21.94 11.12599999999999 20.00800000000001 8.374 20.00800000000001 8.374S23.44800000000001 10.914 21.62200000000002 13.613C18.79200000000002 17.899 11.85900000000001 13.533 11.85900000000001 13.533z"/><path class="disruptiva-water" d="M0.13800000000001 16.18000000000001S2.599 13.74500000000001 6.59400000000001 13.34800000000001C6.59400000000001 13.34800000000001 8.81700000000001 13.08400000000002 12.01800000000002 14.77700000000002S17.25700000000002 16.81400000000002 18.87100000000001 16.04700000000001C18.87100000000001 16.04700000000001 17.12400000000001 17.58100000000002 14.37300000000001 17.10500000000002C12.494 16.76100000000003 9.66300000000001 15.49100000000002 7.81100000000001 15.09500000000001C6.11800000000001 14.67100000000001 3.02200000000001 14.45900000000002 0.13800000000001 16.17900000000002z"/><path class="disruptiva-sun" d="M9.478 12.422L12.41499999999999 12.502S12.41499999999999 6.62799999999999 17.12499999999999 5.755C21.54299999999999 4.935 22.12499999999999 9.697 22.12499999999999 9.697S22.33699999999999 4.697 17.17699999999999 4.80200000000001C12.044 4.90800000000001 9.95399999999999 10.06700000000001 9.478 12.42200000000001zM9.425 10.782L9.76899999999999 9.80199999999999L7.49399999999999 10.33199999999999C7.30899999999998 10.38499999999999 7.30899999999998 10.64899999999999 7.51999999999998 10.67599999999999z"/><path class="disruptiva-sun" d="M10.21899999999999 8.771L10.93299999999999 7.739L7.758 7.36900000000001C7.547 7.34200000000001 7.494 7.63300000000001 7.678 7.71300000000001zM11.357 7.183L12.38800000000001 6.257L9.05500000000001 4.749C8.87000000000001 4.66999999999999 8.71100000000001 4.90899999999999 8.87000000000001 5.03999999999999zM12.65300000000001 6.019L13.843 5.305L11.066 2.553C10.93300000000001 2.421 10.696 2.58 10.801 2.765zM14.10800000000001 5.093L15.431 4.617L13.658 1.23C13.553 1.04499999999999 13.288 1.151 13.34100000000001 1.336zM15.77500000000001 4.485L17.098 4.352L16.595 0.886C16.569 0.675 16.27800000000001 0.70099999999999 16.25100000000001 0.886zM17.62700000000001 4.273L18.89700000000001 4.511L19.40000000000001 1.54799999999999C19.426 1.36299999999999 19.16200000000001 1.257 19.08200000000001 1.44199999999999zM19.61100000000001 4.723L20.643 5.331L22.01900000000001 3.02999999999999C22.125 2.87 21.91300000000001 2.68599999999999 21.75500000000001 2.81799999999999zM21.27800000000001 5.887L21.91300000000001 6.813L23.47400000000002 5.411C23.60700000000002 5.279 23.47400000000002 5.041 23.28900000000002 5.12zM22.25800000000001 7.687L22.49500000000001 8.797L24.083 8.083C24.24200000000001 8.003 24.189 7.766 24.03 7.739z"/></svg>
