<svg xmlns="http://www.w3.org/2000/svg" viewBox="0 0 71 29"><path class="disruptiva-disruptiva" d="M25.92400000000001 9.44A3.792 3.792 0 0 0 25.024 8.11699999999999C24.654 7.74699999999999 24.20400000000001 7.45599999999999 23.702 7.21699999999999A4.085 4.085 0 0 0 22.088 6.89999999999998C21.506 6.89999999999998 20.976 7.00599999999997 20.47399999999999 7.21799999999999A3.792 3.792 0 0 0 19.151 8.118C18.78099999999999 8.488 18.48899999999999 8.93799999999999 18.27799999999999 9.44A4.085 4.085 0 0 0 17.95999999999999 11.054V15.18100000000001H13.065V6.90100000000001H6.425C6.00099999999999 6.90100000000001 5.605 6.97900000000001 5.20699999999999 7.13800000000001C4.83699999999999 7.297 4.493 7.535 4.22799999999999 7.80000000000001A3.05 3.05 0 0 0 3.32799999999999 9.99600000000001C3.32799999999999 10.41900000000001 3.40799999999999 10.816 3.56699999999999 11.21300000000002C3.726 11.58300000000003 3.964 11.92700000000002 4.22799999999999 12.19200000000004A3.05 3.05 0 0 0 6.42399999999999 13.09200000000004H8.488C8.62000000000001 13.09200000000004 8.779 13.11800000000005 8.88500000000001 13.17100000000005A0.951 0.951 0 0 1 9.203 13.38200000000006C9.30800000000001 13.48800000000006 9.361 13.59400000000005 9.414 13.70000000000008C9.467 13.83200000000008 9.494 13.96400000000009 9.494 14.09700000000007S9.467 14.38700000000006 9.414 14.49400000000006A0.951 0.951 0 0 1 9.203 14.81100000000007C9.09700000000001 14.91700000000006 8.991 14.97000000000006 8.88500000000001 15.02300000000005C8.753 15.07600000000005 8.62000000000001 15.10300000000007 8.488 15.10300000000007H2.72V6.82100000000006H0.657V17.19200000000007H8.488C8.91200000000001 17.19200000000007 9.30799999999999 17.11200000000005 9.705 16.95400000000007C10.075 16.79500000000007 10.42 16.55700000000007 10.685 16.29300000000006C10.79000000000001 16.18700000000007 10.895 16.08100000000008 10.97500000000001 15.94900000000007V17.21900000000008H20.024V15.15500000000009H24.178V17.21900000000008H26.24199999999999V11C26.24199999999999 10.47 26.136 9.94200000000001 25.92399999999999 9.44zM10.68400000000001 11.95400000000001A3.05 3.05 0 0 0 9.70500000000001 11.292A3.12 3.12 0 0 0 8.48800000000001 11.054H6.42400000000001A0.967 0.967 0 0 1 6.02800000000001 10.97399999999999A0.951 0.951 0 0 1 5.71000000000001 10.76299999999998A1.087 1.087 0 0 1 5.498 10.41899999999998C5.446 10.28699999999998 5.41900000000001 10.154 5.41900000000001 10.02199999999999S5.44600000000001 9.732 5.49900000000001 9.625A0.951 0.951 0 0 1 5.71000000000001 9.30799999999999C5.816 9.202 5.92200000000001 9.149 6.02800000000001 9.096C6.16000000000001 9.04300000000001 6.292 9.01599999999999 6.42400000000001 9.01599999999999H11.00200000000001V12.35A2.601 2.601 0 0 0 10.68400000000001 11.95400000000001zM24.17800000000001 13.14400000000001H20.02400000000002V11.08000000000001C20.02400000000002 10.79000000000002 20.07700000000001 10.52500000000001 20.18300000000002 10.28700000000001C20.28800000000003 10.04900000000001 20.44700000000002 9.81 20.63300000000003 9.625S21.02900000000003 9.28100000000001 21.29300000000002 9.17500000000001C21.55800000000002 9.07000000000002 21.82300000000002 9.01700000000002 22.08800000000002 9.01700000000002S22.64300000000003 9.07000000000002 22.88100000000003 9.17500000000001C23.11900000000003 9.28100000000001 23.35800000000004 9.44 23.54300000000004 9.625S23.88700000000003 10.02199999999999 23.99300000000004 10.28700000000001C24.09800000000004 10.55100000000002 24.15100000000004 10.816 24.15100000000004 11.08000000000001V13.14400000000001zM70.37300000000002 21.161A3.792 3.792 0 0 0 69.47300000000001 19.838C69.10300000000001 19.46799999999999 68.65300000000002 19.17699999999999 68.15100000000001 18.93799999999999A4.085 4.085 0 0 0 66.537 18.62099999999998C65.95500000000001 18.62099999999998 65.42600000000002 18.72699999999998 64.923 18.93799999999999A3.792 3.792 0 0 0 63.59999999999999 19.838C63.41499999999999 20.023 63.256 20.208 63.124 20.41999999999999L63.70599999999999 18.62099999999998H61.32499999999999L59.261 25.52699999999999L57.197 18.62099999999998H55.372L55.02800000000001 19.20299999999998L58.22900000000001 28.96599999999998H60.29300000000001L62.38300000000001 22.61599999999999V28.96599999999998H64.447V26.90199999999999H68.601V28.96599999999998H70.66399999999999V22.74799999999999A3.608 3.608 0 0 0 70.374 21.161zM68.62700000000001 24.839H64.47300000000001V22.77500000000001C64.47300000000001 22.48400000000001 64.52600000000001 22.219 64.63300000000001 21.981C64.738 21.71699999999999 64.89700000000002 21.505 65.08200000000002 21.31999999999999S65.47900000000001 20.976 65.74300000000002 20.87000000000001C66.00800000000001 20.76400000000001 66.27300000000002 20.71100000000001 66.53700000000003 20.71100000000001A2.027 2.027 0 0 1 67.99200000000005 21.32000000000002C68.17700000000005 21.50500000000003 68.33600000000004 21.71700000000001 68.44200000000004 21.98100000000002C68.54800000000003 22.24600000000001 68.60100000000003 22.51100000000003 68.60100000000003 22.77500000000004V24.83900000000003zM54.86900000000001 28.993V19.547L52.80500000000001 23.119V28.993zM44.28600000000002 20.71099999999999H47.27600000000001V28.14599999999999L49.33900000000001 24.57399999999999V20.71099999999999H51.56200000000001L52.75200000000001 18.64699999999999H34.655V24.86499999999998C34.655 25.15599999999998 34.60200000000001 25.42099999999999 34.496 25.65899999999999C34.39099999999999 25.89699999999999 34.232 26.13499999999999 34.04599999999999 26.32S33.64999999999999 26.66399999999999 33.386 26.76999999999998C33.121 26.87599999999998 32.856 26.92899999999998 32.591 26.92899999999998S32.03599999999999 26.87599999999998 31.79799999999999 26.76999999999998C31.55999999999999 26.66399999999999 31.32099999999999 26.505 31.13599999999998 26.32S30.79199999999999 25.923 30.68599999999998 25.65899999999999A2.025 2.025 0 0 1 30.52799999999998 24.86499999999998V18.64699999999999H28.46399999999997V21.42599999999999A4.22 4.22 0 0 0 28.14599999999997 20.71099999999999C27.96099999999997 20.39399999999998 27.74999999999997 20.12899999999999 27.48499999999997 19.86499999999998S26.95499999999997 19.38799999999998 26.63799999999998 19.20299999999998A4.564 4.564 0 0 0 25.65899999999998 18.77999999999997A3.76 3.76 0 0 0 24.54899999999998 18.62099999999998H14.6C14.17699999999999 18.62099999999998 13.78 18.70099999999999 13.383 18.85899999999998C13.01299999999999 19.01799999999997 12.669 19.25599999999997 12.404 19.52099999999999A3.05 3.05 0 0 0 11.50399999999999 21.71699999999999C11.50399999999999 22.13999999999999 11.58399999999999 22.53699999999998 11.743 22.934C11.901 23.304 12.139 23.648 12.404 23.91300000000001S13.01299999999999 24.41500000000002 13.383 24.57400000000001C13.753 24.73300000000001 14.14999999999999 24.81200000000001 14.6 24.81200000000001H16.66399999999999C16.79599999999999 24.81200000000001 16.95399999999999 24.839 17.06099999999999 24.89200000000003A0.951 0.951 0 0 1 17.37799999999999 25.10300000000004C17.48399999999998 25.20900000000003 17.53699999999999 25.31500000000003 17.58999999999999 25.42100000000005C17.64299999999999 25.55300000000006 17.66999999999999 25.68500000000006 17.66999999999999 25.81800000000004S17.64299999999999 26.10800000000004 17.58999999999999 26.21400000000003A0.951 0.951 0 0 1 17.37799999999999 26.53200000000004C17.27199999999999 26.63800000000004 17.16599999999998 26.69100000000003 17.06099999999999 26.74400000000003C16.928 26.79600000000002 16.79599999999999 26.82300000000004 16.66399999999999 26.82300000000004H10.89599999999999V18.54200000000003H8.83199999999999V22.66900000000004L8.752 22.35200000000003A5.177 5.177 0 0 0 8.22399999999999 21.10800000000003A6.298 6.298 0 0 0 7.404 20.05000000000004A5.387 5.387 0 0 0 6.345 19.23000000000005A5.177 5.177 0 0 0 5.102 18.70000000000005C4.652 18.56800000000004 4.202 18.51500000000004 3.726 18.51500000000004H0.65600000000001V28.88700000000006H3.77900000000001C4.25500000000001 28.88700000000006 4.70500000000001 28.83400000000006 5.15400000000001 28.70100000000005C5.60400000000001 28.56900000000005 6.00100000000001 28.41100000000006 6.39800000000001 28.17200000000006C6.79500000000002 27.93400000000006 7.13800000000001 27.67000000000005 7.45600000000002 27.35200000000006C7.77400000000002 27.03500000000006 8.03800000000001 26.69100000000006 8.27600000000001 26.29400000000007C8.51500000000002 25.92400000000007 8.67300000000002 25.50000000000006 8.80600000000001 25.05000000000007L8.88600000000001 24.73300000000006V28.86000000000007H16.71600000000001C17.14000000000002 28.86000000000007 17.536 28.78000000000006 17.93400000000001 28.62200000000007C18.30400000000002 28.46300000000008 18.64800000000001 28.22500000000008 18.91300000000001 27.96100000000007A3.05 3.05 0 0 0 19.81300000000002 25.76500000000007C19.81300000000002 25.34100000000007 19.73300000000002 24.94500000000008 19.57400000000001 24.54800000000006C19.41500000000001 24.17800000000006 19.20400000000001 23.83300000000006 18.91300000000001 23.56800000000007S18.30400000000002 23.06600000000006 17.93300000000001 22.90800000000007A3.12 3.12 0 0 0 16.71700000000001 22.66900000000007H14.65300000000002A0.967 0.967 0 0 1 14.25600000000002 22.58900000000006A0.951 0.951 0 0 1 13.93900000000002 22.37800000000004A0.934 0.934 0 0 1 13.72700000000002 22.03400000000005C13.67400000000002 21.90200000000004 13.64700000000002 21.76900000000006 13.64700000000002 21.63700000000006S13.67400000000002 21.34700000000007 13.72700000000002 21.24000000000007A0.951 0.951 0 0 1 13.93900000000002 20.92300000000006C14.04400000000003 20.81700000000007 14.15000000000002 20.76400000000007 14.25600000000002 20.71100000000007C14.38800000000002 20.65800000000007 14.52100000000002 20.63100000000006 14.65300000000002 20.63100000000006H20.44700000000002V28.91300000000007H22.51100000000003V26.84900000000008L24.83900000000003 26.82300000000007L25.73900000000004 28.91300000000007H27.93500000000003L26.79700000000003 26.21400000000006C27.08800000000002 26.02900000000006 27.35300000000003 25.81800000000007 27.61700000000002 25.55300000000006C27.85500000000002 25.28800000000007 28.06700000000002 25.02300000000006 28.22600000000002 24.70600000000005C28.33200000000001 24.49500000000004 28.43800000000002 24.28300000000005 28.51600000000002 24.07100000000006V24.78600000000006C28.51600000000002 25.36800000000005 28.62300000000002 25.89600000000007 28.83400000000002 26.40000000000007C29.04600000000002 26.90200000000007 29.33700000000002 27.35200000000006 29.70800000000002 27.72300000000007S30.52800000000001 28.38400000000007 31.03000000000002 28.59600000000006A4.085 4.085 0 0 0 32.64400000000002 28.91300000000007C33.22600000000002 28.91300000000007 33.75600000000002 28.80700000000008 34.25800000000003 28.59600000000006C34.76100000000003 28.38400000000007 35.21100000000003 28.09300000000008 35.58100000000002 27.72300000000007S36.24300000000003 26.90300000000008 36.48100000000003 26.40000000000007C36.53400000000002 26.26700000000006 36.58700000000002 26.13500000000008 36.64000000000003 25.97600000000006V28.91300000000007H38.70300000000003V26.84900000000008H40.76700000000003A4.18 4.18 0 0 0 42.38100000000003 26.53200000000007A3.792 3.792 0 0 0 43.70400000000002 25.63200000000006C44.07400000000003 25.26200000000006 44.36500000000003 24.81200000000007 44.60400000000003 24.30900000000006A4.085 4.085 0 0 0 44.92100000000002 22.69600000000006C44.92100000000002 22.32600000000005 44.86800000000003 21.95500000000004 44.76200000000002 21.58400000000006C44.60300000000001 21.32000000000005 44.47200000000001 21.00200000000007 44.28600000000002 20.71100000000007zM6.63600000000002 25.02399999999997C6.47700000000002 25.39399999999998 6.26600000000002 25.73799999999997 5.97500000000002 26.00299999999999A3.05 3.05 0 0 1 4.99500000000002 26.66399999999999A3.12 3.12 0 0 1 3.77900000000003 26.90199999999999H2.74700000000003V20.68499999999998H3.77900000000003C4.20200000000003 20.68499999999998 4.59900000000002 20.76499999999999 4.99600000000002 20.92299999999997C5.36600000000003 21.08199999999997 5.71000000000002 21.31999999999997 5.97500000000002 21.58399999999998S6.47700000000002 22.19299999999998 6.63600000000002 22.56399999999997C6.79500000000003 22.93399999999997 6.87400000000002 23.33099999999996 6.87400000000002 23.77999999999998C6.87400000000002 24.22999999999996 6.79400000000003 24.65299999999997 6.63600000000002 25.02399999999997zM26.45300000000003 23.56899999999996C26.34700000000004 23.83299999999997 26.18900000000004 24.04499999999996 26.00300000000003 24.22999999999996S25.60700000000003 24.57399999999996 25.34200000000003 24.67999999999995C25.10400000000003 24.78599999999995 24.81200000000003 24.83899999999994 24.54800000000003 24.83899999999994H22.48400000000004V20.68499999999995H24.54800000000003C24.83900000000003 20.68499999999995 25.10400000000003 20.73799999999994 25.34200000000003 20.84299999999993C25.58000000000003 20.94899999999993 25.81800000000003 21.10799999999992 26.00300000000003 21.29299999999992S26.34700000000003 21.68999999999991 26.45300000000003 21.95499999999993C26.55900000000003 22.21899999999994 26.61200000000004 22.48399999999992 26.61200000000004 22.74799999999994C26.61200000000004 23.06599999999995 26.55900000000004 23.33099999999993 26.45300000000003 23.56799999999993zM42.61900000000003 23.56899999999996C42.51300000000004 23.83299999999997 42.35400000000003 24.04499999999996 42.16900000000003 24.22999999999996S41.77200000000002 24.57399999999996 41.50800000000003 24.67999999999995C41.27000000000003 24.78599999999995 40.97800000000003 24.83899999999994 40.71400000000003 24.83899999999994H38.65000000000004V20.68499999999995H40.71400000000003C41.00500000000003 20.68499999999995 41.27000000000003 20.73799999999994 41.50800000000003 20.84299999999993C41.74600000000003 20.94899999999993 41.98400000000003 21.10799999999992 42.16900000000003 21.29299999999992S42.51300000000002 21.68999999999991 42.61900000000003 21.95499999999993C42.72500000000003 22.21899999999994 42.77800000000004 22.48399999999992 42.77800000000004 22.74799999999994C42.77800000000004 23.06599999999995 42.72500000000004 23.33099999999993 42.61900000000003 23.56799999999993z"/><path class="disruptiva-water" d="M43.889 7.667S48.863 7.191 47.779 12.667C47.779 12.667 49.392 10.97499999999999 48.916 9.202C48.307 6.821 45.34399999999999 7.13800000000001 43.889 7.667z"/><path class="disruptiva-water" d="M40.926 13.09100000000001S46.852 14.917 48.94200000000001 12.80100000000002C51.006 10.68400000000003 49.075 7.93100000000001 49.075 7.93100000000001S52.515 10.471 50.68900000000001 13.17100000000002C47.831 17.45700000000002 40.926 13.09100000000001 40.926 13.09100000000001z"/><path class="disruptiva-water" d="M29.205 15.737S31.66499999999999 13.303 35.661 12.90600000000001C35.661 12.90600000000001 37.883 12.64100000000002 41.08400000000001 14.33500000000001S46.324 16.37200000000002 47.937 15.60500000000002C47.937 15.60500000000002 46.191 17.13900000000001 43.439 16.66300000000001C41.561 16.31900000000002 38.729 15.04900000000001 36.87799999999999 14.65300000000002C35.18399999999999 14.22900000000001 32.08799999999998 14.01700000000003 29.20499999999999 15.73700000000002z"/><path class="sun-distruptiva" d="M38.544 11.97999999999999L41.481 12.06S41.481 6.18600000000001 46.19099999999999 5.31299999999999C50.60899999999999 4.493 51.19099999999999 9.255 51.19099999999999 9.255S51.40299999999999 4.255 46.24399999999999 4.35999999999999C41.08399999999999 4.46599999999998 39.02099999999999 9.62499999999997 38.54399999999999 11.97999999999999zM38.46500000000001 10.34L38.809 9.36000000000001L36.53399999999999 9.89000000000002C36.34799999999999 9.94300000000001 36.34799999999999 10.20700000000002 36.55999999999999 10.23400000000001z"/><path class="disruptiva-sun" d="M39.285 8.32900000000001L40 7.297L36.82500000000001 6.92699999999999C36.613 6.90000000000001 36.56 7.191 36.74500000000001 7.26999999999998zM40.423 6.74100000000001L41.455 5.81500000000003L38.121 4.30700000000002C37.936 4.227 37.777 4.46600000000001 37.936 4.59800000000001zM41.71900000000001 5.57700000000003L42.91000000000001 4.86300000000003L40.13200000000001 2.11100000000002C40 1.97900000000001 39.762 2.13800000000001 39.86700000000001 2.32300000000001zM43.17500000000001 4.65100000000004L44.49800000000001 4.17500000000004L42.72500000000001 0.78800000000004C42.61900000000002 0.60300000000004 42.35500000000001 0.70800000000003 42.40700000000001 0.89400000000003zM44.84100000000001 4.04300000000004L46.164 3.91000000000003L45.66200000000001 0.44400000000002C45.63500000000001 0.233 45.34400000000001 0.25900000000001 45.31800000000001 0.44400000000002zM46.694 3.83100000000005L47.964 4.06900000000005L48.46599999999999 1.10600000000005C48.49299999999999 0.92100000000005 48.22799999999999 0.81500000000005 48.149 1.00000000000006zM48.678 4.28100000000003L49.70999999999999 4.88900000000004L51.086 2.58700000000005C51.191 2.42900000000006 50.98 2.24300000000005 50.821 2.37600000000003zM50.345 5.44500000000002L50.98 6.37100000000001L52.54000000000001 4.96900000000002C52.673 4.83600000000001 52.54000000000001 4.59900000000002 52.35600000000001 4.67800000000003zM51.324 7.24400000000003L51.562 8.35500000000002L53.149 7.64100000000002C53.30800000000001 7.56100000000001 53.255 7.32300000000001 53.096 7.29700000000003z"/><path class="disruptiva-isla" d="M0.858 11.965V6.96800000000002H2.643V15.17800000000003H5.996C8.646 15.17800000000003 9.392 15.06600000000003 9.554 14.64200000000003C9.97 13.55800000000002 9.399 13.03600000000003 7.797 13.03600000000003C4.767 13.03600000000003 3.011 11.27900000000003 3.79299999999999 9.03400000000002C4.345 7.45200000000003 5.702 6.96800000000002 9.586 6.96800000000002H12.99500000000001V15.17800000000003H17.899L18.069 12.52200000000002C18.264 9.47900000000001 18.872 8.28900000000002 20.666 7.43200000000002C21.734 6.92400000000001 22.035 6.91500000000002 23.199 7.358C25.455 8.21700000000001 26.006 9.34800000000001 26.14699999999999 13.41800000000001L26.26899999999999 16.963H25.344C24.553 16.963 24.41699999999999 16.80699999999999 24.41699999999999 15.892V14.821H19.77699999999999V16.963H15.49399999999999C11.92399999999999 16.963 11.20999999999998 16.87299999999999 11.20999999999998 16.42699999999999C11.20999999999998 15.761 10.87399999999998 15.76399999999998 9.98199999999999 16.43899999999999C9.46299999999998 16.83099999999999 8.22699999999999 16.963 5.07399999999998 16.963H0.85799999999999zM24.41800000000001 11.94900000000001C24.41800000000001 10.89200000000002 24.18300000000001 10.27000000000001 23.54100000000001 9.62900000000002C22.47300000000001 8.55900000000003 21.93600000000001 8.53400000000002 20.71800000000002 9.49200000000002C19.95500000000001 10.09200000000001 19.77700000000002 10.53000000000003 19.77700000000002 11.81200000000001V13.39200000000003H24.41700000000002zM11.21000000000001 10.53700000000001V8.75200000000001H8.57600000000001C6.60900000000001 8.75200000000001 5.82400000000001 8.89500000000001 5.474 9.31800000000001C4.64700000000001 10.31400000000002 5.51400000000001 11.05100000000002 7.75200000000001 11.25400000000002C8.852 11.35400000000001 9.95200000000001 11.63500000000002 10.19600000000001 11.87900000000002C10.98000000000002 12.66400000000002 11.21000000000001 12.36000000000001 11.21000000000001 10.53700000000001z"/></svg>
